<?xml version="1.0" encoding="UTF-8" standalone="no"?>
<svg
   xmlns:dc="http://purl.org/dc/elements/1.1/"
   xmlns:cc="http://creativecommons.org/ns#"
   xmlns:rdf="http://www.w3.org/1999/02/22-rdf-syntax-ns#"
   xmlns:svg="http://www.w3.org/2000/svg"
   xmlns="http://www.w3.org/2000/svg"
   xmlns:sodipodi="http://sodipodi.sourceforge.net/DTD/sodipodi-0.dtd"
   xmlns:inkscape="http://www.inkscape.org/namespaces/inkscape"
   width="1024"
   height="1024"
   viewBox="0 0 1024 1024"
   id="svg2"
   version="1.1"
   inkscape:version="0.91 r13725"
   sodipodi:docname="espressif.svg">
  <sodipodi:namedview
     pagecolor="#ffffff"
     bordercolor="#666666"
     borderopacity="1"
     objecttolerance="10"
     gridtolerance="10"
     guidetolerance="10"
     inkscape:pageopacity="0"
     inkscape:pageshadow="2"
     inkscape:window-width="1366"
     inkscape:window-height="706"
     id="namedview3380"
     showgrid="false"
     inkscape:zoom="0.23046875"
     inkscape:cx="512"
     inkscape:cy="512"
     inkscape:window-x="-8"
     inkscape:window-y="-8"
     inkscape:window-maximized="1"
     inkscape:current-layer="svg2" />
  <defs
     id="defs4" />
  <metadata
     id="metadata7">
    <rdf:RDF>
      <cc:Work
         rdf:about="">
        <dc:format>image/svg+xml</dc:format>
        <dc:type
           rdf:resource="http://purl.org/dc/dcmitype/StillImage" />
      </cc:Work>
    </rdf:RDF>
  </metadata>
  <path
     inkscape:connector-curvature="0"
     id="path3351"
     d="m 515.92912,985.55294 c -112.3058,-7.73463 -213.4963,-48.96208 -298.2706,-121.52267 -18.4877,-15.82403 -48.0955,-46.52226 -63.8174,-66.16773 -14.2762,-17.83908 -33.4995,-45.89145 -43.9324,-64.11022 C 73.762619,670.63066 51.579519,600.17568 44.739719,526.77103 c -2.1266,-22.82189 -2.1334,-66.76566 -0.014,-89.91833 10.3946,-113.55353 57.220401,-217.96659 135.157301,-301.37641 4.5351,-4.85356 8.9207,-8.82468 9.7457,-8.82468 1.58,0 25.5073,23.4521 25.5073,25.00073 0,0.49497 -4.6385,5.78226 -10.3078,11.74951 -53.8817,56.71347 -95.6428,135.69475 -113.479501,214.61961 -8.3736,37.05212 -11.2366,63.4885 -11.2366,103.75692 0,32.7067 1.3574,49.7158 6.2999,78.94064 15.545701,91.92205 60.111401,179.54678 125.448501,246.65566 76.0402,78.10252 174.0965,126.30015 283.2323,139.21707 19.8981,2.35507 63.8567,3.21342 84.4144,1.64838 108.4889,-8.25979 206.63789,-51.01863 285.65839,-124.44813 l 11.57863,-10.75943 12.97249,12.98609 12.97253,12.98625 -4.78318,4.96665 c -2.63074,2.73174 -10.5948,10.08119 -17.69789,16.33214 -80.99066,71.27445 -180.69347,114.12513 -288.94707,124.18524 -17.3384,1.61126 -58.8691,2.19792 -75.3319,1.064 z m -25.6449,-81.28038 c -17.8199,-2.48087 -38.4594,-6.64319 -53.7115,-10.83166 l -12.0384,-3.30612 -19.4834,-17.1025 c -10.7158,-9.40642 -20.0839,-17.66927 -20.8178,-18.36195 -1.0527,-0.99353 0.1075,-3.21818 5.4947,-10.53571 13.1284,-17.83229 23.129,-41.25488 26.9617,-63.14738 2.2783,-13.01367 2.2548,-35.73174 -0.051,-48.90868 -9.0988,-52.00525 -46.0197,-95.97799 -95.1836,-113.36361 -14.2443,-5.03719 -26.3603,-7.38501 -44.5895,-8.64058 -28.1934,-1.94188 -44.915,-6.29547 -67.6069,-17.602 -30.5283,-15.21115 -54.2202,-38.60666 -69.954,-69.0789 -11.3029,-21.89061 -17.5323,-45.05873 -17.3732,-64.61275 0.1847,-22.68232 5.6536,-57.70573 11.061,-70.83502 20.8197,-50.55059 65.1006,-86.43684 120.0763,-97.31235 13.2721,-2.62554 50.498,-2.59984 72.1262,0.0497 104.6074,12.81523 198.0213,56.97966 272.6925,128.92405 37.2045,35.84599 69.5807,80.07322 93.2914,127.44016 24.878,49.69867 40.7119,104.34945 47.1629,162.78254 2.2073,19.99385 2.498,70.05314 0.5173,89.1024 -2.7655,26.59846 -9.6386,65.72506 -12.0599,68.65438 -2.9581,3.57882 -49.5577,20.75945 -71.7132,26.43973 l -10.4382,2.67613 -28.5634,-10.75091 c -15.7099,-5.9131 -28.8986,-11.06418 -29.3081,-11.44706 -0.4096,-0.38288 0.7036,-4.78755 2.4737,-9.78829 6.8522,-19.35837 12.7977,-46.06066 16.0764,-72.20199 1.9766,-15.7593 1.6513,-58.835 -0.5735,-75.94572 -6.9763,-53.65386 -24.4985,-100.98511 -53.7986,-145.32162 -54.5806,-82.59053 -142.6035,-136.26849 -242.315,-147.76815 -31.8797,-3.67664 -42.7495,-1.07649 -50.4711,12.07313 -2.5759,4.3866 -2.9604,6.16083 -2.9474,13.6019 0.017,9.84433 1.4351,13.28789 8.1629,19.82385 5.5849,5.42565 11.3105,7.01538 30.2895,8.41003 86.3696,6.34666 164.7603,52.70191 212.7334,125.797 54.6034,83.19729 60.7576,190.79494 15.9683,279.181 -10.1879,20.10432 -12.822,24.09563 -15.8091,23.95409 -1.3149,-0.0621 -8.6417,-0.98357 -16.2817,-2.04714 z M 259.75502,829.4545 c -28.8759,-5.28237 -51.3832,-26.15939 -58.5829,-54.33974 -2.5278,-9.89386 -2.7099,-25.69514 -0.4096,-35.54859 4.6143,-19.76599 20.072,-39.31224 37.9212,-47.95147 13.0838,-6.33267 21.2742,-7.9787 36.8245,-7.40062 10.9386,0.40663 14.0952,0.9527 21.4857,3.71675 22.0522,8.24755 37.8408,24.72367 44.8683,46.82187 5.8586,18.42315 4.3344,37.08196 -4.5003,55.08749 -8.833,18.00201 -26.7,32.77658 -45.8256,37.89415 -7.7455,2.07242 -24.8074,2.9959 -31.7813,1.72016 z m 556.43307,-65.23732 -21.37075,-0.58369 -0.23671,-11.23141 c -0.37811,-17.94212 -2.38219,-45.20929 -4.61146,-62.74309 C 778.07185,596.08357 739.23032,504.76691 679.53722,430.03246 603.28872,334.5712 495.54202,268.81125 375.34542,244.37832 c -28.5204,-5.79749 -50.8524,-8.42534 -85.9462,-10.11346 l -24.5764,-1.18219 -0.5342,-34.22908 c -0.2939,-18.82599 -0.258,-34.86085 0.08,-35.633 0.8649,-1.97724 21.6341,-18.92262 33.9424,-27.69318 12.0635,-8.59618 29.0947,-19.42191 41.6192,-26.45492 l 8.8579,-4.97407 8.773,1.1711 c 175.8161,23.46975 333.0094,115.44655 439.64026,257.24189 64.33861,85.5561 106.9624,187.18268 123.62912,294.76514 1.51013,9.74791 2.74572,19.02217 2.74572,20.60949 0,7.64916 -30.73084,54.83482 -51.00986,78.32302 l -7.33355,8.4941 -13.8369,0.049 c -7.61033,0.0269 -23.45378,-0.21381 -35.20768,-0.53481 z M 942.794,523.16587 c -0.5403,-1.28971 -3.18901,-8.36178 -5.88622,-15.71567 C 925.1952,475.51584 903.60151,429.80004 886.13017,399.94946 840.89876,322.66964 782.39356,255.01523 713.07422,199.83064 655.06942,153.6534 588.15212,116.01653 517.26482,89.699757 c -7.5339,-2.79693 -13.6239,-5.65803 -13.6239,-6.40053 0,-0.7385 1.977,-6.90363 4.3934,-13.7003 5.1294,-14.42803 2.7495,-13.11493 25.5257,-14.08347 54.0404,-2.298 116.1916,8.65574 170.6526,30.07643 125.88479,49.513223 222.37379,159.800353 255.54027,292.083083 9.21431,36.75104 12.41002,64.01084 12.42813,106.01449 0.0143,26.69384 -0.22349,31.47612 -1.58923,32.33719 -0.88161,0.55578 -7.27575,2.91707 -14.2092,5.24732 l -12.60642,4.23681 -0.98217,-2.34491 z"
     style="fill:#ed5547" />
</svg>
